# xmcd
#
# Track frame offsets: 
#        150
#        13201
#        25696
#        36981
#        54512
#        68226
#        82154
#        95274
#        108492
#        126336
#        139524
#        155191
#        169221
#        182512
#
# Disc length: 2573 seconds
#
# Revision: 0
# Processed by: cddbd v1.5.2PL0 Copyright (c) Steve Scherf et al.
# Submitted via: ExactAudioCopy v1.0b2
#
DISCID=c00a0b0e
DTITLE=Chris Aron - May day will come
DYEAR=2011
DGENRE=Boogie-Woogie
TTITLE0=Red Light
TTITLE1=The Last Train
TTITLE2=Maybe Tomorrow
TTITLE3=Young and Wrong
TTITLE4=Tonight
TTITLE5=Wild and Free
TTITLE6=My Day will Come
TTITLE7=Welcome Home
TTITLE8=If I Could
TTITLE9=We're On Fire
TTITLE10=Stan the Gunman
TTITLE11=Attack of the Triffids
TTITLE12=Hard Life
TTITLE13=The Golden Way
EXTD=
EXTT0=
EXTT1=
EXTT2=
EXTT3=
EXTT4=
EXTT5=
EXTT6=
EXTT7=
EXTT8=
EXTT9=
EXTT10=
EXTT11=
EXTT12=
EXTT13=
PLAYORDER=
